HIERARCHY
ROOT Hips
{
	OFFSET 0.000000 0.000000 0.000000
	CHANNELS 6 Xposition Yposition Zposition Zrotation Yrotation Xrotation 
	JOINT LowerBack
	{
		OFFSET 0.000000 0.000000 0.000000
		CHANNELS 3 Zrotation Yrotation Xrotation
		JOINT Spine
		{
			OFFSET 0.028270 2.035590 -0.193380
			CHANNELS 3 Zrotation Yrotation Xrotation
			JOINT Spine1
			{
				OFFSET 0.056720 2.048850 -0.042750
				CHANNELS 3 Zrotation Yrotation Xrotation
				JOINT Neck
				{
					OFFSET 0.000000 0.000000 0.000000
					CHANNELS 3 Zrotation Yrotation Xrotation
					JOINT Neck1
					{
						OFFSET -0.054170 1.746240 0.172020
						CHANNELS 3 Zrotation Yrotation Xrotation
						JOINT Head
						{
							OFFSET 0.104070 1.761360 -0.123970
							CHANNELS 3 Zrotation Yrotation Xrotation
							End Site
							{
								OFFSET 0.000000 0.000000 0.000000
							}
						}
					}
				}
				JOINT LeftShoulder
				{
					OFFSET 0.000000 0.000000 0.000000
					CHANNELS 3 Zrotation Yrotation Xrotation
					JOINT LeftArm
					{
						OFFSET 3.362410 1.200890 -0.311210
						CHANNELS 3 Zrotation Yrotation Xrotation
						JOINT LeftForeArm
						{
							OFFSET 4.983000 -0.000000 -0.000000
							CHANNELS 3 Zrotation Yrotation Xrotation
							JOINT LeftHand
							{
								OFFSET 3.483560 -0.000000 -0.000000
								CHANNELS 3 Zrotation Yrotation Xrotation
								JOINT LeftFingerBase
								{
									OFFSET 0.000000 0.000000 0.000000
									CHANNELS 3 Zrotation Yrotation Xrotation
									JOINT LeftHandIndex1
									{
										OFFSET 0.715260 -0.000000 -0.000000
										CHANNELS 3 Zrotation Yrotation Xrotation
										End Site
										{
											OFFSET 0.000000 0.000000 0.000000
										}
									}
								}
								JOINT LThumb
								{
									OFFSET 0.000000 0.000000 0.000000
									CHANNELS 3 Zrotation Yrotation Xrotation
									End Site
									{
										OFFSET 0.000000 0.000000 0.000000
									}
								}
							}
						}
					}
				}
				JOINT RightShoulder
				{
					OFFSET 0.000000 0.000000 0.000000
					CHANNELS 3 Zrotation Yrotation Xrotation
					JOINT RightArm
					{
						OFFSET -3.136600 1.374050 -0.404650
						CHANNELS 3 Zrotation Yrotation Xrotation
						JOINT RightForeArm
						{
							OFFSET -5.241900 -0.000000 -0.000000
							CHANNELS 3 Zrotation Yrotation Xrotation
							JOINT RightHand
							{
								OFFSET -3.444170 -0.000000 -0.000000
								CHANNELS 3 Zrotation Yrotation Xrotation
								JOINT RightFingerBase
								{
									OFFSET 0.000000 0.000000 0.000000
									CHANNELS 3 Zrotation Yrotation Xrotation
									JOINT RightHandIndex1
									{
										OFFSET -0.622530 -0.000000 -0.000000
										CHANNELS 3 Zrotation Yrotation Xrotation
										End Site
										{
											OFFSET 0.000000 0.000000 0.000000
										}
									}
								}
								JOINT RThumb
								{
									OFFSET 0.000000 0.000000 0.000000
									CHANNELS 3 Zrotation Yrotation Xrotation
									End Site
									{
										OFFSET 0.000000 0.000000 0.000000
									}
								}
							}
						}
					}
				}
			}
		}
	}
}
}
MOTION
Frames: 18
Frame Time: 0.008333
-12.187952 15.988249 -0.331044 17.867434 87.330496 45.958862 -1.828028 0.335322 -7.818433 -0.795600 0.287122 -4.255143 -3.820646 0.231904 0.431072 10.874903 -7.920488 -8.850526 -1.263407 -0.066250 -0.485740 0.000000 0.000000 0.000000 -0.960053 9.477869 3.511053 -43.205321 -15.171249 -12.334406 -0.973545 -63.486228 -0.142243 22.841347 5.261591 1.016785 -0.312068 0.300807 0.000000 0.000000 0.000000 0.000000 0.000000 0.000000 0.000000 4.860182 -1.758583 1.641567 33.727153 33.092931 4.547770 179.518486 79.271868 -179.995705 0.357605 6.791350 0.025460 -0.016151 -0.630659 -0.000000 0.000000 0.000000 0.000000 0.000000 0.000000 0.000000 
-11.916327 16.047300 -0.343600 7.286577 87.195916 35.394702 -0.894985 0.226467 -7.844090 -0.584292 0.089378 -4.279737 -3.910716 0.036222 0.341112 10.780618 -7.970218 -8.722588 -1.294296 -0.070931 -0.441107 0.000000 0.000000 0.000000 -0.760028 9.205732 3.376062 -43.146506 -15.982264 -11.966638 -0.876313 -65.469033 -0.147567 22.708498 4.799748 0.913031 -0.321607 0.321273 -0.000000 0.000000 0.000000 0.000000 0.000000 0.000000 0.000000 4.726382 -1.862956 1.535344 34.658379 32.023155 3.628876 179.551139 80.042824 179.998983 -0.306407 6.939563 -0.019002 -0.000611 -0.625739 -0.000000 0.000000 0.000000 0.000000 0.000000 0.000000 0.000000 
-11.640401 16.108346 -0.354521 -2.594454 87.140010 25.544606 0.107946 0.078536 -7.878018 -0.357024 -0.153277 -4.304287 -4.004386 -0.201862 0.260471 10.686264 -8.019260 -8.608158 -1.332776 -0.075944 -0.400848 0.000000 0.000000 0.000000 -0.538519 8.952925 3.242182 -43.005566 -16.864820 -11.629429 -0.787514 -67.390776 -0.152625 22.497096 4.302960 0.800189 -0.329993 0.343595 0.000000 0.000000 0.000000 0.000000 0.000000 0.000000 0.000000 4.636681 -2.000107 1.435369 35.507666 30.983012 2.633520 179.587982 80.872525 179.993448 -1.004549 7.153264 -0.068075 0.014665 -0.621656 -0.000000 0.000000 0.000000 0.000000 0.000000 0.000000 0.000000 
-11.360496 16.170752 -0.363321 -11.799784 87.198829 16.385064 1.125353 -0.122585 -7.926010 -0.125782 -0.447948 -4.332199 -4.098343 -0.489470 0.181726 10.596455 -8.068142 -8.504681 -1.379310 -0.081369 -0.364307 0.000000 0.000000 0.000000 -0.272486 8.661213 3.111846 -42.794972 -17.756236 -11.330490 -0.705775 -69.263709 -0.157341 22.221482 3.763517 0.678357 -0.337067 0.367762 0.000000 0.000000 0.000000 0.000000 0.000000 0.000000 0.000000 4.598850 -2.173170 1.350030 36.274741 29.953854 1.562271 179.626920 81.757571 179.987854 -1.725129 7.415023 -0.122060 0.029673 -0.617944 0.000000 0.000000 0.000000 0.000000 0.000000 0.000000 0.000000 
-11.076885 16.233972 -0.369494 -20.585218 87.377147 7.663661 2.100947 -0.378263 -7.996076 0.097284 -0.790229 -4.364786 -4.191656 -0.822896 0.107642 10.517577 -8.124713 -8.419043 -1.432947 -0.087019 -0.333555 0.000000 0.000000 0.000000 0.036408 8.341469 2.985503 -42.498813 -18.680020 -11.053571 -0.631894 -71.069008 -0.161793 21.907186 3.180202 0.549335 -0.343004 0.393743 0.000000 0.000000 0.000000 0.000000 0.000000 0.000000 0.000000 4.620605 -2.389126 1.282734 36.959752 28.937726 0.415520 179.667099 82.699480 179.982287 -2.462839 7.699317 -0.181054 0.044424 -0.614029 0.000000 0.000000 0.000000 0.000000 0.000000 0.000000 0.000000 
-10.789828 16.297393 -0.372711 -29.274592 87.655582 -0.937452 2.988566 -0.678992 -8.097457 0.301981 -1.166768 -4.404836 -4.283522 -1.190062 0.036973 10.453055 -8.192409 -8.353199 -1.492792 -0.092804 -0.309088 0.000000 0.000000 0.000000 0.394331 7.984679 2.862056 -42.115482 -19.616261 -10.797156 -0.565291 -72.809679 -0.166053 21.579276 2.556659 0.415422 -0.347940 0.421360 0.000000 0.000000 0.000000 0.000000 0.000000 0.000000 0.000000 4.703764 -2.645093 1.237792 37.569172 27.931945 -0.804872 179.707831 83.702132 179.976855 -3.212833 7.977275 -0.244555 0.058972 -0.609385 0.000000 0.000000 0.000000 0.000000 0.000000 0.000000 0.000000 
-10.499496 16.360360 -0.372650 -38.153427 87.995930 -9.696297 3.759960 -1.007353 -8.237875 0.481240 -1.558436 -4.454643 -4.373837 -1.573146 -0.031371 10.403577 -8.272980 -8.307821 -1.557838 -0.098652 -0.290983 0.000000 0.000000 0.000000 0.805623 7.586489 2.738977 -41.647864 -20.539802 -10.564374 -0.505319 -74.494428 -0.170234 21.262106 1.903106 0.279414 -0.352039 0.450309 0.000000 0.000000 0.000000 0.000000 0.000000 0.000000 0.000000 4.845586 -2.933149 1.218346 38.112310 26.936093 -2.095691 179.748769 84.771513 179.971614 -3.970112 8.220540 -0.311061 0.073331 -0.603570 0.000000 0.000000 0.000000 0.000000 0.000000 0.000000 0.000000 
-10.205864 16.422344 -0.369274 -47.383042 88.346099 -18.764882 4.413318 -1.340386 -8.421642 0.632767 -1.943327 -4.513406 -4.464881 -1.951087 -0.090821 10.369319 -8.371929 -8.289435 -1.626846 -0.104375 -0.281100 0.000000 0.000000 0.000000 1.248983 7.191325 2.613927 -41.075549 -21.487517 -10.343666 -0.452892 -76.110982 -0.174519 20.980144 1.238362 0.145309 -0.355664 0.480176 0.000000 0.000000 0.000000 0.000000 0.000000 0.000000 0.000000 5.044327 -3.248507 1.223334 38.592486 25.965784 -3.452275 179.790108 85.913985 179.966607 -4.731059 8.400220 -0.378268 0.087437 -0.596173 0.000000 0.000000 0.000000 0.000000 0.000000 0.000000 0.000000 
-9.908920 16.482680 -0.362644 -56.777371 88.649539 -27.950580 4.971361 -1.652866 -8.650848 0.759854 -2.299566 -4.582836 -4.556880 -2.302628 -0.146233 10.343567 -8.482867 -8.292056 -1.699188 -0.110044 -0.277570 0.000000 0.000000 0.000000 1.730532 6.780152 2.484019 -40.421648 -22.396771 -10.152013 -0.407098 -77.689114 -0.178983 20.745056 0.582655 0.016202 -0.358874 0.510371 0.000000 0.000000 0.000000 0.000000 0.000000 0.000000 0.000000 5.286265 -3.571512 1.254753 39.021872 25.015133 -4.869037 179.831754 87.134463 179.961896 -5.486610 8.495950 -0.443179 0.101175 -0.587054 -0.000000 0.000000 0.000000 0.000000 0.000000 0.000000 0.000000 
-9.608405 16.540754 -0.353122 -65.812516 88.861225 -36.724045 5.484967 -1.925036 -8.925091 0.872687 -2.613629 -4.661605 -4.651695 -2.614162 -0.193977 10.319332 -8.603270 -8.316160 -1.774026 -0.115602 -0.280498 0.000000 0.000000 0.000000 2.227481 6.383867 2.348692 -39.681896 -23.281501 -9.987161 -0.369037 -79.230158 -0.183735 20.566283 -0.040473 -0.104110 -0.361970 0.540305 -0.000000 0.000000 0.000000 0.000000 0.000000 0.000000 0.000000 5.559661 -3.891723 1.309657 39.401554 24.093677 -6.339834 179.874035 88.436532 179.957505 -6.227910 8.492878 -0.502493 0.114320 -0.576150 -0.000000 0.000000 0.000000 0.000000 0.000000 0.000000 0.000000 
-9.304051 16.595990 -0.341202 -73.686878 88.958772 -44.283131 6.008851 -2.147778 -9.243760 0.983828 -2.882802 -4.749398 -4.749714 -2.882636 -0.234192 10.286959 -8.725801 -8.357517 -1.850912 -0.121101 -0.288594 0.000000 0.000000 0.000000 2.722753 6.009376 2.209094 -38.865192 -24.129798 -9.852383 -0.339451 -80.747945 -0.188804 20.443519 -0.609489 -0.213027 -0.365189 0.569393 -0.000000 0.000000 0.000000 0.000000 0.000000 0.000000 0.000000 5.849068 -4.198317 1.385370 39.732425 23.200563 -7.858879 179.917101 89.820465 179.953461 -6.943830 8.385557 -0.553011 0.126618 -0.563595 0.000000 0.000000 0.000000 0.000000 0.000000 0.000000 0.000000 
-8.995514 16.647766 -0.327516 -79.710129 88.940259 -49.940667 6.585550 -2.321796 -9.605553 1.104151 -3.112585 -4.845326 -4.850193 -3.113087 -0.264949 10.236709 -8.843683 -8.412751 -1.929401 -0.126576 -0.300844 0.000000 0.000000 0.000000 3.192626 5.673193 2.068098 -37.972971 -24.951565 -9.746332 -0.319342 -82.247309 -0.194166 20.370422 -1.106057 -0.308048 -0.368811 0.597156 -0.000000 0.000000 0.000000 0.000000 0.000000 0.000000 0.000000 6.140187 -4.485956 1.477677 40.010471 22.339418 -9.418519 -0.038929 88.714612 -0.050218 -7.623238 8.178196 -0.592238 0.137809 -0.549662 -0.000000 0.000000 0.000000 0.000000 0.000000 0.000000 0.000000 
-8.682557 16.695327 -0.312652 -83.600120 88.811845 -53.422131 7.238223 -2.451091 -10.007091 1.240417 -3.309395 -4.949327 -4.950838 -3.311643 -0.288359 10.158391 -8.944945 -8.474168 -2.009176 -0.132133 -0.314989 0.000000 0.000000 0.000000 3.623968 5.372298 1.928755 -37.019265 -25.731677 -9.671521 -0.309138 -83.743194 -0.199709 20.333880 -1.520613 -0.387773 -0.372975 0.623247 -0.000000 0.000000 0.000000 0.000000 0.000000 0.000000 0.000000 6.416387 -4.744108 1.583778 40.233200 21.503525 -11.012144 0.005853 87.172769 -0.053508 -8.254836 7.885144 -0.618673 0.147697 -0.534786 0.000000 0.000000 0.000000 0.000000 0.000000 0.000000 0.000000 
-8.365030 16.737882 -0.297178 -85.561890 88.577136 -54.943633 7.980876 -2.537859 -10.440420 1.396764 -3.476811 -5.059094 -5.050104 -3.481652 -0.301794 10.045393 -9.025515 -8.539317 -2.089641 -0.137764 -0.330382 0.000000 0.000000 0.000000 3.991769 5.131892 1.794340 -35.996155 -26.499559 -9.622438 -0.309450 -85.231554 -0.205329 20.320983 -1.847332 -0.451500 -0.377812 0.647489 -0.000000 0.000000 0.000000 0.000000 0.000000 0.000000 0.000000 6.667327 -4.970674 1.699548 40.391052 20.701314 -12.629420 0.051441 85.555900 -0.056402 -8.831705 7.525558 -0.632415 0.156191 -0.519403 0.000000 0.000000 0.000000 0.000000 0.000000 0.000000 0.000000 
-8.043073 16.774458 -0.281459 -86.097359 88.238192 -55.023002 8.816551 -2.583405 -10.891349 1.574671 -3.616238 -5.172251 -5.145821 -3.624636 -0.307320 9.892453 -9.077845 -8.602308 -2.170061 -0.143491 -0.345414 0.000000 0.000000 0.000000 4.289674 4.954934 1.667124 -34.910699 -27.255457 -9.599806 -0.320278 -86.717771 -0.210885 20.316910 -2.089129 -0.499630 -0.383256 0.669864 -0.000000 0.000000 0.000000 0.000000 0.000000 0.000000 0.000000 6.881344 -5.158467 1.822709 40.479384 19.931920 -14.260776 0.097741 83.866830 -0.058886 -9.348647 7.125136 -0.634765 0.163283 -0.504007 0.000000 0.000000 0.000000 0.000000 0.000000 0.000000 0.000000 
-7.717207 16.803893 -0.265244 -85.776960 87.807504 -54.253324 9.729406 -2.591490 -11.339309 1.771218 -3.729474 -5.285317 -5.236351 -3.742773 -0.308756 9.699808 -9.095611 -8.656989 -2.249841 -0.149334 -0.358409 0.000000 0.000000 0.000000 4.526863 4.832270 1.548151 -33.772965 -27.990094 -9.605898 -0.341106 -88.208180 -0.216232 20.306472 -2.254691 -0.533364 -0.389095 0.690488 -0.000000 0.000000 0.000000 0.000000 0.000000 0.000000 0.000000 7.053741 -5.301960 1.951919 40.497334 19.190849 -15.897208 0.144580 82.109845 -0.060965 -9.804863 6.708786 -0.628020 0.169055 -0.489000 0.000000 0.000000 0.000000 0.000000 0.000000 0.000000 0.000000 
-7.388295 16.824927 -0.247980 -85.096749 87.310815 -53.158444 10.687032 -2.571036 -11.758726 1.979743 -3.821404 -5.392790 -5.320896 -3.841398 -0.307402 9.472885 -9.079643 -8.701700 -2.327892 -0.155193 -0.369008 0.000000 0.000000 0.000000 4.714168 4.763204 1.437701 -32.579225 -28.717585 -9.641080 -0.371185 -89.696427 -0.221307 20.280578 -2.355171 -0.554408 -0.395114 0.709613 -0.000000 0.000000 0.000000 0.000000 0.000000 0.000000 0.000000 7.186593 -5.405480 2.084927 40.445274 18.481652 -17.527846 0.191725 80.286898 -0.062664 -10.205007 6.298249 -0.614979 0.173633 -0.474645 0.000000 0.000000 0.000000 0.000000 0.000000 0.000000 0.000000 
-7.057544 16.836279 -0.228629 -84.394995 86.795659 -52.108265 11.636033 -2.538280 -12.122973 2.188821 -3.901333 -5.488715 -5.398972 -3.930130 -0.304797 9.221638 -9.033541 -8.735717 -2.403189 -0.160955 -0.377029 0.000000 0.000000 0.000000 4.874223 4.735798 1.334714 -31.326215 -29.444801 -9.708652 179.590774 -88.824891 179.773919 20.233202 -2.403982 -0.565269 -0.401020 0.727539 -0.000000 0.000000 0.000000 0.000000 0.000000 0.000000 0.000000 7.288465 -5.478371 2.219643 40.329410 17.806208 -19.143499 0.238700 78.401677 -0.064024 -10.556933 5.909817 -0.598333 0.177149 -0.461062 0.000000 0.000000 0.000000 0.000000 0.000000 0.000000 0.000000 
